<?xml version="1.0" encoding="UTF-8" standalone="no"?>
<svg
   width="16"
   height="16"
   fill="currentColor"
   class="bi bi-bank2"
   viewBox="0 0 16 16"
   version="1.1"
   id="svg4"
   sodipodi:docname="bank2.svg"
   inkscape:version="1.1.2 (0a00cf5339, 2022-02-04)"
   xmlns:inkscape="http://www.inkscape.org/namespaces/inkscape"
   xmlns:sodipodi="http://sodipodi.sourceforge.net/DTD/sodipodi-0.dtd"
   xmlns="http://www.w3.org/2000/svg"
   xmlns:svg="http://www.w3.org/2000/svg">
  <defs
     id="defs8" />
  <sodipodi:namedview
     id="namedview6"
     pagecolor="#ffffff"
     bordercolor="#666666"
     borderopacity="1.0"
     inkscape:pageshadow="2"
     inkscape:pageopacity="0.0"
     inkscape:pagecheckerboard="0"
     showgrid="false"
     inkscape:zoom="51.9375"
     inkscape:cx="8"
     inkscape:cy="7.990373"
     inkscape:window-width="1920"
     inkscape:window-height="1050"
     inkscape:window-x="1920"
     inkscape:window-y="0"
     inkscape:window-maximized="1"
     inkscape:current-layer="svg4" />
  <path
     d="M8.277.084a.5.5 0 0 0-.554 0l-7.5 5A.5.5 0 0 0 .5 6h1.875v7H1.5a.5.5 0 0 0 0 1h13a.5.5 0 1 0 0-1h-.875V6H15.5a.5.5 0 0 0 .277-.916l-7.5-5zM12.375 6v7h-1.25V6h1.25zm-2.5 0v7h-1.25V6h1.25zm-2.5 0v7h-1.25V6h1.25zm-2.5 0v7h-1.25V6h1.25zM8 4a1 1 0 1 1 0-2 1 1 0 0 1 0 2zM.5 15a.5.5 0 0 0 0 1h15a.5.5 0 1 0 0-1H.5z"
     id="path2"
     style="fill:#ffffff;fill-opacity:1" />
</svg>
